<?xml version="1.0" standalone="no"?>
<!DOCTYPE svg PUBLIC "-//W3C//DTD SVG 20010904//EN"
 "http://www.w3.org/TR/2001/REC-SVG-20010904/DTD/svg10.dtd">
<svg version="1.0" xmlns="http://www.w3.org/2000/svg"
 width="256.000000pt" height="256.000000pt" viewBox="0 0 256.000000 256.000000"
 preserveAspectRatio="xMidYMid meet">
<metadata>
Created by potrace 1.16, written by Peter Selinger 2001-2019
</metadata>
<g transform="translate(0.000000,256.000000) scale(0.100000,-0.100000)"
fill="#000000" stroke="none">
<path d="M1247 1998 c-4 -310 -7 -681 -7 -825 l0 -263 -133 0 -133 0 -199 231
-200 231 -3 -231 -2 -232 -143 3 -142 3 0 480 0 480 135 3 135 2 200 -235 200
-235 3 551 c1 304 1 554 -1 556 -7 6 -181 -59 -252 -94 -152 -77 -347 -237
-441 -363 -389 -522 -341 -1232 113 -1682 118 -117 195 -174 330 -242 160 -80
387 -136 554 -136 l79 0 2 868 3 867 305 0 305 0 55 -26 c73 -34 111 -67 142
-126 51 -93 57 -225 15 -326 -22 -51 -91 -122 -145 -149 -41 -20 -66 -24 -207
-28 l-160 -5 4 -505 c2 -278 5 -506 6 -508 4 -5 128 44 193 77 130 66 209 123
325 239 454 450 502 1160 113 1682 -94 126 -289 286 -441 363 -156 78 -388
137 -539 137 l-63 0 -6 -562z m-636 -87 c8 -11 54 -65 103 -121 59 -67 86
-104 79 -111 -7 -7 -46 31 -117 111 l-107 120 -134 0 c-83 0 -135 4 -135 10 0
6 56 10 149 10 135 0 150 -2 162 -19z m1643 -537 c-1 -112 -33 -191 -103 -257
-71 -66 -221 -131 -221 -95 0 9 18 20 43 27 110 33 201 110 232 199 9 26 19
87 22 135 8 119 28 113 27 -9z m-1390 -389 l100 -115 138 0 c116 0 138 -2 138
-15 0 -13 -23 -15 -144 -15 l-144 0 -106 121 c-93 107 -114 139 -88 139 4 0
52 -52 106 -115z"/>
<path d="M1654 1487 c-3 -8 -4 -49 -2 -93 l3 -79 75 -3 c41 -2 85 0 97 3 54
13 69 129 23 167 -28 23 -187 26 -196 5z"/>
</g>
</svg>
