<svg xmlns="http://www.w3.org/2000/svg" viewBox="0 0 800 800">
  <circle cx="400" cy="400" r="385" fill="#3d3d3d"/>
  <g transform="translate(0,800) scale(0.1,-0.1)" fill="#c0c0c0" stroke="none">
    <path d="M2130 4243 c0 -1083 3 -1412 12 -1421 9 -9 100 -12 349 -12 186 0
344 3 353 6 14 6 16 64 16 554 0 331 4 551 9 555 6 3 340 -325 744 -730 641
-643 748 -745 759 -732 2 1 5 342 8 757 l5 755 30 47 c55 87 73 92 355 99 275
6 313 14 418 87 120 82 193 196 218 339 29 164 -22 327 -137 445 -67 68 -148
114 -244 138 -49 12 -820 23 -873 12 l-22 -4 2 -351 c3 -329 4 -352 21 -355
10 -2 33 8 52 22 18 14 60 40 92 57 90 49 84 35 83 203 -1 83 -1 157 0 164 0
9 66 12 296 12 l296 0 59 -31 c93 -50 134 -119 134 -229 0 -111 -37 -175 -128
-223 l-62 -32 -245 -5 -245 -5 -75 -36 c-134 -65 -227 -179 -265 -326 -12 -47
-15 -141 -15 -511 0 -299 -3 -453 -10 -450 -10 3 -542 532 -1177 1171 -163
163 -302 297 -309 297 -12 0 -14 -122 -16 -717 l-3 -718 -117 -3 -118 -3 0
1002 c0 697 3 1000 11 997 5 -2 340 -334 744 -738 535 -535 737 -732 745 -724
8 8 11 256 10 866 0 470 2 862 6 871 6 16 52 17 558 17 348 0 574 -4 610 -11
136 -25 304 -121 389 -221 81 -97 130 -184 166 -297 17 -52 21 -90 21 -200 0
-144 -7 -178 -55 -286 -78 -174 -191 -292 -365 -380 -112 -56 -164 -66 -410
-74 l-205 -6 -3 -117 -3 -117 26 -7 c47 -12 405 3 485 21 93 20 111 26 231 86
278 137 465 383 538 709 15 66 13 275 -3 350 -30 136 -88 277 -154 372 -45 65
-179 205 -237 248 -68 50 -190 111 -295 146 l-85 29 -718 3 c-456 2 -723 -1
-731 -7 -8 -7 -11 -184 -9 -705 1 -478 -2 -698 -9 -702 -6 -4 -338 321 -738
722 -410 410 -738 730 -749 732 l-21 3 0 -1408z"/>
  </g>
</svg>
